{"asset":{"version":"2.0","generator":"Unity 2020.3.5f1 glTFast 4.4.7"},"nodes":[{"name":"CombinedMesh","mesh":0}],"buffers":[{"uri":"WallGLTF-05-38-2021-19-38-16.bin","byteLength":6211512}],"bufferViews":[{"buffer":0,"byteLength":478632},{"buffer":0,"byteLength":5732880,"byteOffset":478632,"byteStride":48}],"accessors":[{"bufferView":1,"componentType":5126,"count":119435,"type":"VEC3","max":[2.24290276,7.327518,7.61486053],"min":[-2.24290371,-7.32752,-7.61486053]},{"bufferView":1,"componentType":5126,"count":119435,"type":"VEC3","byteOffset":12},{"bufferView":1,"componentType":5126,"count":119435,"type":"VEC4","byteOffset":24},{"bufferView":1,"componentType":5126,"count":119435,"type":"VEC2","byteOffset":40},{"bufferView":0,"componentType":5125,"count":119658,"type":"SCALAR"}],"materials":[{"name":"Default-Material","pbrMetallicRoughness":{"metallicFactor":0,"roughnessFactor":0.5},"emissiveFactor":[0,0,0]}],"meshes":[{"name":"WallMesh-05-38-2021-19-38-16","primitives":[{"attributes":{"POSITION":0,"NORMAL":1,"TANGENT":2,"TEXCOORD_0":3},"indices":4,"material":0}]}],"scene":0,"scenes":[{"nodes":[0]}]}