{"asset":{"version":"2.0","generator":"Unity 2020.3.5f1 glTFast 4.4.7"},"nodes":[{"name":"CombinedMesh (2)","mesh":0,"translation":[0,0,-15.75]}],"buffers":[{"uri":"WallGLTF-05-38-2021-19-38-16.bin","byteLength":3113352}],"bufferViews":[{"buffer":0,"byteLength":240312},{"buffer":0,"byteLength":2873040,"byteOffset":240312,"byteStride":48}],"accessors":[{"bufferView":1,"componentType":5126,"count":59855,"type":"VEC3","max":[2.24290276,7.327518,-8.25514],"min":[-2.24290371,-7.32752,-23.48486]},{"bufferView":1,"componentType":5126,"count":59855,"type":"VEC3","byteOffset":12},{"bufferView":1,"componentType":5126,"count":59855,"type":"VEC4","byteOffset":24},{"bufferView":1,"componentType":5126,"count":59855,"type":"VEC2","byteOffset":40},{"bufferView":0,"componentType":5125,"count":498,"type":"SCALAR"},{"bufferView":0,"componentType":5125,"count":59580,"type":"SCALAR","byteOffset":1992}],"materials":[{"name":"New Material 1 (Instance) (Instance)","pbrMetallicRoughness":{"baseColorFactor":[0.227450982,0.415094316,0.415094316,1],"metallicFactor":0,"roughnessFactor":0.5},"emissiveFactor":[0,0,0]},{"name":"New Material (Instance) (Instance)","pbrMetallicRoughness":{"baseColorFactor":[1,0,0,1],"metallicFactor":0,"roughnessFactor":0.5},"emissiveFactor":[0,0,0]}],"meshes":[{"name":"WallMesh-08-09-2021-07-09-46","primitives":[{"attributes":{"POSITION":0,"NORMAL":1,"TANGENT":2,"TEXCOORD_0":3},"indices":4,"material":0},{"attributes":{"POSITION":0,"NORMAL":1,"TANGENT":2,"TEXCOORD_0":3},"indices":5,"material":1}]}],"scene":0,"scenes":[{"nodes":[0]}]}