{"asset":{"version":"2.0","generator":"Unity 2020.3.5f1 glTFast 4.4.7"},"nodes":[{"name":"Combiner","mesh":0,"translation":[0,0,-15.75]}],"buffers":[{"uri":"plato_wall2.bin","byteLength":24709584}],"bufferViews":[{"buffer":0,"byteLength":1902144},{"buffer":0,"byteLength":22807440,"byteOffset":1902144,"byteStride":48}],"accessors":[{"bufferView":1,"componentType":5126,"count":475155,"type":"VEC3","max":[4.716318,7.138831,9.669794],"min":[-8.725864,-7.138831,-9.883339]},{"bufferView":1,"componentType":5126,"count":475155,"type":"VEC3","byteOffset":12},{"bufferView":1,"componentType":5126,"count":475155,"type":"VEC4","byteOffset":24},{"bufferView":1,"componentType":5126,"count":475155,"type":"VEC2","byteOffset":40},{"bufferView":0,"componentType":5125,"count":528,"type":"SCALAR"},{"bufferView":0,"componentType":5125,"count":48,"type":"SCALAR","byteOffset":2112},{"bufferView":0,"componentType":5125,"count":59580,"type":"SCALAR","byteOffset":2304},{"bufferView":0,"componentType":5125,"count":59160,"type":"SCALAR","byteOffset":240624},{"bufferView":0,"componentType":5125,"count":59580,"type":"SCALAR","byteOffset":477264},{"bufferView":0,"componentType":5125,"count":59580,"type":"SCALAR","byteOffset":715584},{"bufferView":0,"componentType":5125,"count":59160,"type":"SCALAR","byteOffset":953904},{"bufferView":0,"componentType":5125,"count":59160,"type":"SCALAR","byteOffset":1190544},{"bufferView":0,"componentType":5125,"count":59580,"type":"SCALAR","byteOffset":1427184},{"bufferView":0,"componentType":5125,"count":59160,"type":"SCALAR","byteOffset":1665504}],"materials":[{"name":"Material.001 (Instance)","pbrMetallicRoughness":{"baseColorFactor":[0.773333251,0.893948257,1,1],"metallicFactor":0},"emissiveFactor":[0,0,0]},{"name":"Material.002 (Instance)","pbrMetallicRoughness":{"baseColorFactor":[0,0,0,1],"metallicFactor":0},"emissiveFactor":[0,0,0]},{"name":"New Material (Instance)","pbrMetallicRoughness":{"baseColorFactor":[1,0,0,1],"metallicFactor":0,"roughnessFactor":0.5},"emissiveFactor":[0,0,0]},{"name":"New Material (Instance)","pbrMetallicRoughness":{"baseColorFactor":[1,0,0,1],"metallicFactor":0,"roughnessFactor":0.5},"emissiveFactor":[0,0,0]},{"name":"New Material (Instance)","pbrMetallicRoughness":{"baseColorFactor":[1,0,0,1],"metallicFactor":0,"roughnessFactor":0.5},"emissiveFactor":[0,0,0]},{"name":"New Material (Instance)","pbrMetallicRoughness":{"baseColorFactor":[1,0,0,1],"metallicFactor":0,"roughnessFactor":0.5},"emissiveFactor":[0,0,0]},{"name":"blue (Instance)","pbrMetallicRoughness":{"baseColorFactor":[0.07035923,0,1,1],"metallicFactor":0,"roughnessFactor":0.5},"emissiveFactor":[0,0,0]},{"name":"blue (Instance)","pbrMetallicRoughness":{"baseColorFactor":[0.07035923,0,1,1],"metallicFactor":0,"roughnessFactor":0.5},"emissiveFactor":[0,0,0]},{"name":"blue (Instance)","pbrMetallicRoughness":{"baseColorFactor":[0.07035923,0,1,1],"metallicFactor":0,"roughnessFactor":0.5},"emissiveFactor":[0,0,0]},{"name":"blue (Instance)","pbrMetallicRoughness":{"baseColorFactor":[0.07035923,0,1,1],"metallicFactor":0,"roughnessFactor":0.5},"emissiveFactor":[0,0,0]}],"meshes":[{"name":"WallMesh-08-50-2021-13-50-52","primitives":[{"attributes":{"POSITION":0,"NORMAL":1,"TANGENT":2,"TEXCOORD_0":3},"indices":4,"material":0},{"attributes":{"POSITION":0,"NORMAL":1,"TANGENT":2,"TEXCOORD_0":3},"indices":5,"material":1},{"attributes":{"POSITION":0,"NORMAL":1,"TANGENT":2,"TEXCOORD_0":3},"indices":6,"material":2},{"attributes":{"POSITION":0,"NORMAL":1,"TANGENT":2,"TEXCOORD_0":3},"indices":7,"material":3},{"attributes":{"POSITION":0,"NORMAL":1,"TANGENT":2,"TEXCOORD_0":3},"indices":8,"material":4},{"attributes":{"POSITION":0,"NORMAL":1,"TANGENT":2,"TEXCOORD_0":3},"indices":9,"material":5},{"attributes":{"POSITION":0,"NORMAL":1,"TANGENT":2,"TEXCOORD_0":3},"indices":10,"material":6},{"attributes":{"POSITION":0,"NORMAL":1,"TANGENT":2,"TEXCOORD_0":3},"indices":11,"material":7},{"attributes":{"POSITION":0,"NORMAL":1,"TANGENT":2,"TEXCOORD_0":3},"indices":12,"material":8},{"attributes":{"POSITION":0,"NORMAL":1,"TANGENT":2,"TEXCOORD_0":3},"indices":13,"material":9}]}],"scene":0,"scenes":[{"nodes":[0]}]}